<?xml version="1.0" encoding="utf-8"?>
<!-- Generator: Adobe Illustrator 25.2.3, SVG Export Plug-In . SVG Version: 6.00 Build 0)  -->
<svg version="1.1" id="Layer_1" xmlns="http://www.w3.org/2000/svg" xmlns:xlink="http://www.w3.org/1999/xlink" x="0px" y="0px"
	 viewBox="0 0 850.39 850.39" style="enable-background:new 0 0 850.39 850.39;" xml:space="preserve">
<g>
	<path d="M169.29,469.17c8.25,0,14.56,1.69,18.58,5.4c3.2,3.07,5.53,7.69,5.53,13.61c0,7.48-3.07,13.14-8.12,16.85
		c-4.97,3.59-11.58,5.23-19.58,5.23h-16.08v-1.82c5.53-0.39,6.09-0.78,6.09-6.18v-25.06c0-5.45-0.56-5.7-5.53-6.09v-1.94H169.29z
		 M161.77,501.71c0,5.01,2.2,6.18,6.96,6.18c12.06,0,17.85-8.77,17.85-18.71c0-6.53-2.55-11.88-7.3-14.87
		c-2.98-1.99-6.87-2.94-11.49-2.94c-2.9,0-4.49,0.43-5.19,0.86c-0.6,0.43-0.82,1.21-0.82,3.67V501.71z"/>
	<path d="M208.53,488.79c2.12-3.46,4.75-6.83,7.73-6.83c2.33,0,3.89,1.69,3.89,3.24c0,1.47-0.86,2.77-2.25,3.41
		c-0.78,0.3-1.34,0.17-1.73-0.17c-0.99-0.91-1.73-1.3-2.81-1.3c-1.64,0-3.59,1.86-4.97,5.23v11.28c0,4.15,0.3,4.54,5.32,4.93v1.69
		h-15.34v-1.69c3.89-0.39,4.45-0.78,4.45-4.93v-13.09c0-4.02-0.35-4.28-3.93-4.8v-1.43c3.2-0.52,6.22-1.25,9.51-2.59v7.04H208.53z"
		/>
	<path d="M223.92,511c-2.12,0-3.72-1.47-3.72-3.89c0-2.12,1.6-3.76,3.8-3.76s3.76,1.64,3.76,3.76c0,2.42-1.56,3.89-3.76,3.89H223.92
		z"/>
</g>
<g>
	<path d="M465.55,495.86c-0.18,1.43-0.58,4.89-0.84,6.38h-12.14l-0.2-0.57c3.24-7.17,6.45-14.16,9.71-21.53h-3.99
		c-2.52,0-2.87,0.35-3.27,1.34c-0.28,0.64-0.54,1.61-0.81,3.24l-0.69-0.05c0.12-2.45,0.24-5.22,0.27-6.85h0.55
		c0.29,0.87,0.54,0.92,1.22,0.92h9.45l0.18,0.54c-3.21,7.09-6.38,14.07-9.54,21.38c0.76,0.15,2.13,0.22,3.69,0.22
		c2.78,0,3.78-0.27,4.45-1.38c0.46-0.79,0.84-1.93,1.28-3.86L465.55,495.86z"/>
	<path d="M475.95,502.24v-1.04c1.42-0.32,1.62-0.64,1.31-2.1c-0.32-1.43-0.73-3.24-1.22-5.31h-4.91c-0.38,1.66-0.69,3.07-0.98,4.5
		c-0.49,2.2-0.31,2.62,1.42,2.92v1.04h-5.05v-1.04c1.48-0.37,1.8-0.62,2.62-3.83l4.8-18.86l0.79-0.32
		c1.47,6.4,2.94,12.83,4.45,19.18c0.73,3.19,1.05,3.58,2.54,3.83v1.04H475.95z M473.7,483.15h-0.05c-0.73,2.99-1.45,6.08-2.14,9
		h4.19L473.7,483.15z"/>
	<path d="M499.27,479.82c-1.9,0.25-2.08,0.42-2.08,3.48v14.39c0,3.07,0.2,3.26,2.08,3.51v1.04h-6.34v-1.04
		c1.97-0.25,2.16-0.45,2.16-3.51v-7.07h-7.84v7.07c0,3.04,0.18,3.26,2.08,3.51v1.04h-6.22v-1.04c1.83-0.25,2-0.45,2-3.51V483.3
		c0-3.06-0.17-3.24-2.06-3.48v-1.09h6.16v1.09c-1.77,0.25-1.96,0.42-1.96,3.48v5.69h7.84v-5.69c0-3.04-0.18-3.24-2-3.48v-1.09h6.19
		V479.82z"/>
	<path d="M514.64,502.56c-0.27,0-0.54-0.02-0.81-0.07c-1.85-0.15-2.8-0.94-3.85-3.31c-0.78-1.75-1.53-3.96-2.22-5.69
		c-0.41-1.04-0.81-1.48-1.99-1.48h-0.64v5.64c0,3.04,0.21,3.31,2.05,3.56v1.04h-6.19v-1.04c1.85-0.25,2.06-0.52,2.06-3.56V483.3
		c0-3.09-0.2-3.29-1.97-3.48v-1.09h5.86c1.73,0,2.84,0.32,3.71,1.26c0.93,0.94,1.51,2.55,1.51,4.75c0,3.14-1.25,5.02-2.89,6.13
		c0.4,1.19,1.33,3.56,2.02,5.22c0.83,1.9,1.31,2.92,1.85,3.81c0.58,1.06,1.09,1.46,1.61,1.66L514.64,502.56z M506.16,490.79
		c1.15,0,1.91-0.3,2.49-1.04c0.87-1.09,1.22-2.5,1.22-4.45c0-3.88-1.58-5.31-3.27-5.31c-0.69,0-1.05,0.15-1.22,0.35
		c-0.15,0.2-0.25,0.62-0.25,1.56v8.9H506.16z"/>
	<path d="M524.57,502.24v-1.04c1.42-0.32,1.62-0.64,1.31-2.1c-0.32-1.43-0.73-3.24-1.22-5.31h-4.91c-0.38,1.66-0.69,3.07-0.98,4.5
		c-0.49,2.2-0.31,2.62,1.42,2.92v1.04h-5.05v-1.04c1.48-0.37,1.8-0.62,2.62-3.83l4.8-18.86l0.79-0.32
		c1.47,6.4,2.94,12.83,4.45,19.18c0.73,3.19,1.05,3.58,2.54,3.83v1.04H524.57z M522.33,483.15h-0.05c-0.73,2.99-1.45,6.08-2.14,9
		h4.19L522.33,483.15z"/>
	<path d="M550.67,502.24v-1.04c1.85-0.3,1.94-0.54,1.91-4.35l-0.08-14.51h-0.09l-5.6,19.68h-0.46l-5.15-19.18h-0.06l-0.34,10.16
		c-0.09,2.99-0.09,4.52-0.05,5.96c0.05,1.71,0.58,1.95,2.09,2.2v1.09h-5.37v-1.09c1.31-0.2,1.76-0.72,1.94-2.15
		c0.12-1.26,0.26-2.82,0.44-6.7l0.34-7.27c0.2-4.7,0.06-4.89-1.99-5.21v-1.09h3.9l5.18,17.77l5.26-17.77h4.01v1.09
		c-2,0.27-2.14,0.39-2.06,3.98l0.21,13.05c0.08,3.81,0.14,4.05,2.12,4.35v1.04H550.67z"/>
	<path d="M558.38,502.24v-1.04c1.87-0.22,2.06-0.45,2.06-3.56v-14.26c0-3.14-0.2-3.36-2.06-3.56v-1.09h6.24v1.09
		c-1.85,0.2-2.05,0.42-2.05,3.56v14.26c0,3.11,0.2,3.34,2.05,3.56v1.04H558.38z"/>
	<path d="M580.03,502.56c-0.27,0-0.54-0.02-0.81-0.07c-1.85-0.15-2.8-0.94-3.85-3.31c-0.78-1.75-1.53-3.96-2.22-5.69
		c-0.41-1.04-0.81-1.48-1.99-1.48h-0.64v5.64c0,3.04,0.21,3.31,2.05,3.56v1.04h-6.19v-1.04c1.85-0.25,2.06-0.52,2.06-3.56V483.3
		c0-3.09-0.2-3.29-1.97-3.48v-1.09h5.86c1.73,0,2.84,0.32,3.71,1.26c0.93,0.94,1.51,2.55,1.51,4.75c0,3.14-1.25,5.02-2.89,6.13
		c0.4,1.19,1.33,3.56,2.02,5.22c0.83,1.9,1.31,2.92,1.85,3.81c0.58,1.06,1.09,1.46,1.61,1.66L580.03,502.56z M571.55,490.79
		c1.15,0,1.91-0.3,2.49-1.04c0.87-1.09,1.22-2.5,1.22-4.45c0-3.88-1.58-5.31-3.27-5.31c-0.69,0-1.05,0.15-1.22,0.35
		c-0.15,0.2-0.25,0.62-0.25,1.56v8.9H571.55z"/>
	<path d="M593.82,495.86c-0.18,1.43-0.58,4.89-0.84,6.38h-12.14l-0.2-0.57c3.24-7.17,6.45-14.16,9.71-21.53h-3.99
		c-2.52,0-2.87,0.35-3.27,1.34c-0.28,0.64-0.54,1.61-0.81,3.24l-0.69-0.05c0.12-2.45,0.24-5.22,0.27-6.85h0.55
		c0.29,0.87,0.54,0.92,1.22,0.92h9.45l0.18,0.54c-3.21,7.09-6.38,14.07-9.54,21.38c0.76,0.15,2.13,0.22,3.69,0.22
		c2.78,0,3.78-0.27,4.45-1.38c0.46-0.79,0.84-1.93,1.28-3.86L593.82,495.86z"/>
	<path d="M604.22,502.24v-1.04c1.42-0.32,1.62-0.64,1.31-2.1c-0.32-1.43-0.73-3.24-1.22-5.31h-4.91c-0.38,1.66-0.69,3.07-0.98,4.5
		c-0.49,2.2-0.31,2.62,1.42,2.92v1.04h-5.05v-1.04c1.48-0.37,1.8-0.62,2.62-3.83l4.8-18.86l0.79-0.32
		c1.47,6.4,2.94,12.83,4.45,19.18c0.73,3.19,1.05,3.58,2.54,3.83v1.04H604.22z M601.97,483.15h-0.05c-0.73,2.99-1.45,6.08-2.14,9
		h4.19L601.97,483.15z"/>
	<path d="M624.19,502.24v-1.04c1.85-0.3,1.94-0.54,1.91-4.35l-0.08-14.51h-0.09l-5.6,19.68h-0.46l-5.15-19.18h-0.06l-0.34,10.16
		c-0.09,2.99-0.09,4.52-0.05,5.96c0.05,1.71,0.58,1.95,2.09,2.2v1.09h-5.37v-1.09c1.31-0.2,1.76-0.72,1.94-2.15
		c0.12-1.26,0.26-2.82,0.44-6.7l0.34-7.27c0.2-4.7,0.06-4.89-1.99-5.21v-1.09h3.9l5.18,17.77l5.26-17.77h4.01v1.09
		c-2,0.27-2.14,0.39-2.06,3.98l0.21,13.05c0.08,3.81,0.14,4.05,2.12,4.35v1.04H624.19z"/>
	<path d="M639.89,478.18c4.02,0,7.66,4.75,7.66,11.99c0,7.81-3.62,12.63-7.97,12.63c-4.3,0-7.72-5.12-7.72-12.09
		c0-6.55,3.04-12.53,8.01-12.53H639.89z M639.38,479.54c-2.57,0-5.01,3.39-5.01,10.23c0,6.65,2.43,11.67,5.72,11.67
		c2.57,0,4.92-3.31,4.92-10.31c0-7.59-2.6-11.59-5.61-11.59H639.38z"/>
	<path d="M665.47,479.82c-1.9,0.25-2.08,0.42-2.08,3.48v14.39c0,3.07,0.2,3.26,2.08,3.51v1.04h-6.34v-1.04
		c1.97-0.25,2.16-0.45,2.16-3.51v-7.07h-7.84v7.07c0,3.04,0.18,3.26,2.08,3.51v1.04h-6.22v-1.04c1.83-0.25,2-0.45,2-3.51V483.3
		c0-3.06-0.17-3.24-2.06-3.48v-1.09h6.16v1.09c-1.77,0.25-1.96,0.42-1.96,3.48v5.69h7.84v-5.69c0-3.04-0.18-3.24-2-3.48v-1.09h6.19
		V479.82z"/>
	<path d="M675.34,502.24v-1.04c1.42-0.32,1.62-0.64,1.31-2.1c-0.32-1.43-0.73-3.24-1.22-5.31h-4.91c-0.38,1.66-0.69,3.07-0.98,4.5
		c-0.49,2.2-0.31,2.62,1.42,2.92v1.04h-5.05v-1.04c1.48-0.37,1.8-0.62,2.62-3.83l4.8-18.86l0.79-0.32
		c1.47,6.4,2.94,12.83,4.45,19.18c0.73,3.19,1.05,3.58,2.54,3.83v1.04H675.34z M673.1,483.15h-0.05c-0.73,2.99-1.45,6.08-2.14,9
		h4.19L673.1,483.15z"/>
	<path d="M695.32,502.24v-1.04c1.85-0.3,1.94-0.54,1.91-4.35l-0.08-14.51h-0.09l-5.6,19.68h-0.46l-5.15-19.18h-0.06l-0.34,10.16
		c-0.09,2.99-0.09,4.52-0.05,5.96c0.05,1.71,0.58,1.95,2.09,2.2v1.09h-5.37v-1.09c1.31-0.2,1.76-0.72,1.94-2.15
		c0.12-1.26,0.26-2.82,0.44-6.7l0.34-7.27c0.2-4.7,0.06-4.89-1.99-5.21v-1.09h3.9l5.18,17.77l5.26-17.77h4.01v1.09
		c-2,0.27-2.14,0.39-2.06,3.98l0.21,13.05c0.08,3.81,0.14,4.05,2.12,4.35v1.04H695.32z"/>
	<path d="M715.92,502.24v-1.04c1.85-0.3,1.94-0.54,1.91-4.35l-0.08-14.51h-0.09l-5.6,19.68h-0.46l-5.15-19.18h-0.06l-0.34,10.16
		c-0.09,2.99-0.09,4.52-0.05,5.96c0.05,1.71,0.58,1.95,2.09,2.2v1.09h-5.37v-1.09c1.31-0.2,1.76-0.72,1.94-2.15
		c0.12-1.26,0.26-2.82,0.44-6.7l0.34-7.27c0.2-4.7,0.06-4.89-1.99-5.21v-1.09h3.9l5.18,17.77l5.26-17.77h4.01v1.09
		c-2,0.27-2.14,0.39-2.06,3.98l0.21,13.05c0.08,3.81,0.14,4.05,2.12,4.35v1.04H715.92z"/>
	<path d="M732.66,502.24v-1.04c1.42-0.32,1.62-0.64,1.31-2.1c-0.32-1.43-0.73-3.24-1.22-5.31h-4.91c-0.38,1.66-0.69,3.07-0.98,4.5
		c-0.49,2.2-0.31,2.62,1.42,2.92v1.04h-5.05v-1.04c1.48-0.37,1.8-0.62,2.62-3.83l4.8-18.86l0.79-0.32
		c1.47,6.4,2.94,12.83,4.45,19.18c0.73,3.19,1.05,3.58,2.54,3.83v1.04H732.66z M730.41,483.15h-0.05c-0.73,2.99-1.45,6.08-2.14,9
		h4.19L730.41,483.15z"/>
	<path d="M746.59,478.73c2.92,0,5.15,0.96,6.58,3.09c1.13,1.75,1.96,4.4,1.96,7.79c0,4.28-1.09,7.51-2.88,9.64
		c-1.76,2.05-4.1,2.99-6.93,2.99h-5.69v-1.04c1.96-0.22,2.16-0.45,2.16-3.54v-14.34c0-3.12-0.2-3.26-1.96-3.49v-1.11H746.59z
		 M743.93,497.34c0,2.87,0.78,3.54,2.46,3.54c4.27,0,6.31-5.02,6.31-10.7c0-3.73-0.9-6.8-2.58-8.5c-1.05-1.14-2.43-1.68-4.07-1.68
		c-1.02,0-1.59,0.25-1.83,0.49c-0.21,0.25-0.29,0.69-0.29,2.1V497.34z"/>
	<path d="M756.83,502.24v-1.04c1.87-0.22,2.06-0.45,2.06-3.56v-14.26c0-3.14-0.2-3.36-2.06-3.56v-1.09h6.24v1.09
		c-1.85,0.2-2.05,0.42-2.05,3.56v14.26c0,3.11,0.2,3.34,2.05,3.56v1.04H756.83z"/>
</g>
<g>
	<path d="M289.55,450.8c1.16,0,1.63,0.23,0.7,1.17l-0.23,0.47c-29.81,18.63-59.63,21.66-90.14,5.59
		c-15.14-9.08-23.99-13.04-34.94-13.28c-10.95-0.23-20.5,5.12-32.84,16.54l-2.8,3.03c-3.03,3.49-4.43,4.19-6.06,3.03
		c-2.1-2.56-0.47-5.59,2.33-8.15c7.69-6.52,17.24-13.98,28.88-22.59c11.65-8.62,20.5-15.84,26.55-22.13
		c6.29-6.29,13.28-14.91,20.96-26.32c-3.96-0.7-6.06-1.16-6.52-1.63c-0.23-0.23,0.23-0.47,1.16-0.47l6.52,0.47
		c11.18-16.07,26.32-33.31,45.19-51.71c18.87-18.4,34.01-29.58,44.95-33.31c-90.38-14.91-140.92,24.22-140.45,51.48
		c0,12.35,7.92,21.43,23.53,27.72c0.93,0.23,0.47,1.4-0.47,1.16c-18.87-6.75-28.42-16.77-28.65-30.51
		c-0.23-12.81,6.75-23.99,20.5-33.54c27.95-19.33,74.07-25.85,129.27-17.24c0.47,0.23,0.93,0.23,1.16,0.23c0.47,0,0.7,0.23,0.7,0.93
		c-4.43,0.7-9.32,2.33-14.21,5.36c-4.89,3.03-9.08,6.06-12.81,9.08c-3.73,3.03-8.39,8.15-14.21,14.91
		c-5.82,6.75-10.25,12.35-13.28,16.31l-14.91,20.26c-6.75,9.55-11.65,16.31-14.67,20.26c17,1.63,15.61,3.49-1.4,1.86
		c-14.91,19.57-29.12,32.14-38.43,37.04c-9.08,4.89-23.06,13.74-34.94,24.69c12.81-8.62,23.99-13.04,33.54-13.28
		c9.55,0,21.2,4.19,34.94,12.58c28.65,17.47,51.71,17.7,80.59,0H289.55z"/>
</g>
<path d="M257.45,463.58c-6.21,2.23-11.67,3.8-15.98,4.92c11-0.71,19.76-2.94,25.82-4.92c0,0,23.06-7.58,43.95-26.76
	c0.15-0.13,0.25-0.23,0.31-0.28c7.01-6.47,17.72-17.7,20.9-15.98c0.89,0.48,1.23,1.23,1.23,1.23c0.49,0.58,1.02,1.4,1.23,2.46
	c0.08,0.38,0.41,2.29-1.23,4.92c-2.52,4.04-30.45,43.07-30.73,49.18c-0.06,1.18,0.77,4.24,1.23,4.92c0.34,0.51,0.77,0.88,0.77,0.88
	c0.13,0.12,0.28,0.23,0.46,0.35c5.94,3.9,19.03-8.45,51.63-35.65c3.47-2.9,13.93-11.6,28.28-22.13
	c21.67-15.91,24.03-15.32,24.59-14.75c1.45,1.47-3.47,8.51-6.15,12.29c-22.79,32.26-50.22,65.25-56.55,90.97
	c-1,4.08-3.89,15.82,1.23,19.67c0.59,0.45,1.7,1.09,3.69,1.23c11.2,0.77,27.93-16.27,45.49-30.73c9.5-7.82,17.4-13.38,24.59-18.44
	c4.06-2.86,15.99-11.25,28.28-18.44c14.29-8.36,35.49-20.77,65.16-27.05c22.96-4.86,41.8-4.1,50.4-3.69
	c12.97,0.61,25.13,2.43,41.8,4.92c11.54,1.72,11.53,2,29.51,4.92c36.02,5.85,44.27,6.09,47.95,6.15
	c10.44,0.16,22.28,0.39,34.42-3.69c0,0,13.93-4.68,26.8-16.55c3-2.77,3.72-4.13,8.58-8.47c3.08-2.76,4.84-4.06,6.42-6.94
	c0.52-0.94,3.34-6.08,1.23-8.61c-0.86-1.03-2.41-1.48-3.69-1.23c-1.68,0.33-2.67,1.85-3.69,3.69c-1.33,2.4-3.05,5.99-4.51,10.82
	c-0.55,1.22-1.46,3.08-2.86,5.16c-6.87,10.22-18.36,15.41-31.96,18.44c-28.31,6.3-56.56,1.19-82.37-3.69
	c-10.81-2.04-19.74-4.2-35.65-6.15c-14.47-1.77-25.85-2.27-31.96-2.46c-14.5-0.44-25.4-0.77-39.34,1.23
	c-16.12,2.31-27.82,6.52-36.88,9.84c-4.79,1.75-22.13,8.28-46.72,23.36c-12.98,7.96-26.04,17.71-51.63,36.88
	c-26.74,20.03-36.67,28.17-39.34,25.82c-2.56-2.26,3.03-12.94,11.06-28.28c3.89-7.43,7.33-14,13.52-23.36
	c8.98-13.58,28.25-39.84,36.88-55.32c1.2-2.15,4.91-8.99,2.46-13.52c-0.23-0.43-0.96-1.78-2.46-2.46c-0.56-0.25-2.26-0.88-7.38,1.23
	c-3.2,1.32-4.92,2.46-4.92,2.46c-28.11,18.66-30.73,20.9-30.73,20.9c-30.99,26.42-58.97,50.28-61.47,47.95
	c-0.73-0.69,0.92-3.46,7.38-13.52c20.77-32.39,29.7-44.36,25.82-50.4c-1.03-1.6-3.46-3.56-6.15-3.69c-2.18-0.11-3.97,1.01-7.38,3.69
	c-4.43,3.47-6.64,5.2-8.61,7.38c-7.98,8.8-21.45,17.65-28.28,22.13c-10.78,7.07-19.39,11.06-22.13,12.29
	C268.65,459.16,263.92,461.26,257.45,463.58z"/>
</svg>
